<svg id="Layer_1" data-name="Layer 1" xmlns="http://www.w3.org/2000/svg" viewBox="0 0 1280 219.16"><defs><style>.cls-1{fill:#fff;}.cls-2{fill:#09c;}</style></defs><path class="cls-1" d="M253.35,168.54l16-9.58q16.86,31,39,31a37.33,37.33,0,0,0,17.76-4.41,31.27,31.27,0,0,0,12.65-11.82A30.61,30.61,0,0,0,343,158.07q0-9.47-6.39-18.53-8.81-12.51-32.2-30.15T275.2,83.71q-10-13.29-10-28.75a43.63,43.63,0,0,1,5.88-22.36,42,42,0,0,1,16.54-15.91,47.79,47.79,0,0,1,23.19-5.81,49.49,49.49,0,0,1,24.85,6.58Q347.26,24,360.16,41.67L344.83,53.3q-10.6-14.05-18.08-18.53a31.15,31.15,0,0,0-16.29-4.47q-11.37,0-18.59,6.9a22.6,22.6,0,0,0-7.22,17,28.91,28.91,0,0,0,2.56,11.88q2.55,5.74,9.32,12.52,3.71,3.57,24.28,18.78,24.4,18,33.47,32.07t9.07,28.23q0,20.44-15.52,35.52t-37.75,15.08A55.38,55.38,0,0,1,279,199.14Q265.11,190,253.35,168.54Z"/><path class="cls-1" d="M395.93,15.61h18.78V129.07q0,20.18.77,25.16,1.39,11.11,6.51,18.59t15.72,12.52a49.17,49.17,0,0,0,21.34,5,42.1,42.1,0,0,0,17.88-4,39.68,39.68,0,0,0,14.31-11,44.6,44.6,0,0,0,8.43-17q1.92-7.15,1.92-29.38V15.61h18.78V129.07q0,25.17-4.92,40.69t-19.67,27q-14.76,11.49-35.71,11.5-22.74,0-39-10.86t-21.72-28.75q-3.45-11-3.45-39.6Z"/><path class="cls-1" d="M551.76,203.55l26.9-187.94h3.06l76.4,154.21L733.79,15.61h3l27.05,187.94H745.43L726.86,69.14,660.41,203.55H655.6L588.36,68.12,569.9,203.55Z"/><path class="cls-1" d="M797,15.61h37.05q22.35,0,34.37,5.3a42.16,42.16,0,0,1,19,16.29,44.68,44.68,0,0,1,7,24.4,43.83,43.83,0,0,1-6.1,22.81,45.22,45.22,0,0,1-17.93,16.67q14.65,5,22.55,11.69A46.82,46.82,0,0,1,905.18,129a48.62,48.62,0,0,1,4.4,20.63q0,22.62-16.55,38.27t-44.4,15.65H797ZM815.41,34V94.19h10.76q19.59,0,28.81-3.65A31,31,0,0,0,869.57,79,30.14,30.14,0,0,0,875,61.6q0-12.9-9-20.25T837.18,34Zm0,79.08v72.06h23.3q20.6,0,30.2-4a34.26,34.26,0,0,0,15.42-12.59A32.83,32.83,0,0,0,882,128.17q-8.19-9.33-22.51-12.78-9.6-2.3-33.42-2.3Z"/><path class="cls-1" d="M1028.93,10.88q42.69,0,71.46,28.49t28.77,70.15q0,41.27-28.71,70t-70,28.75q-41.81,0-70.57-28.62t-28.77-69.25a100.19,100.19,0,0,1,13.1-50.21,96.84,96.84,0,0,1,84.71-49.32Zm.83,18.27A77.51,77.51,0,0,0,990.21,40,78.32,78.32,0,0,0,961,69.3a81.5,81.5,0,0,0-10.49,41.05q0,33.5,23.23,56.58t56,23.08a80.39,80.39,0,0,0,40.5-10.62,76,76,0,0,0,29-29,81.6,81.6,0,0,0,10.43-40.92q0-22.38-10.43-40.47a78,78,0,0,0-29.37-29A79.55,79.55,0,0,0,1029.76,29.15Z"/><path class="cls-1" d="M1142.4,15.61h22l45,73.13,45.26-73.13h21.67l-56,90.81L1280,203.55h-22l-48.8-79.31-49,79.31h-22l60-97Z"/><path class="cls-2" d="M131.5,197.24a21.93,21.93,0,0,1-21.92,21.92H21.92A21.93,21.93,0,0,1,0,197.24V109.58a21.92,21.92,0,1,1,43.83,0v54.79a11,11,0,0,0,11,11h54.79A21.93,21.93,0,0,1,131.5,197.24Z"/><path class="cls-2" d="M131.5,87.66V131.5a21.92,21.92,0,0,1-43.84,0V87.66a21.92,21.92,0,0,1,43.84,0Z"/><path class="cls-2" d="M219.16,21.92v87.66a21.92,21.92,0,1,1-43.83,0V54.79a11,11,0,0,0-11-11H109.58a21.92,21.92,0,1,1,0-43.83h87.66A21.93,21.93,0,0,1,219.16,21.92Z"/></svg>