<svg id="Layer_1" data-name="Layer 1" xmlns="http://www.w3.org/2000/svg" viewBox="0 0 1280 246.11"><path d="M0,196.57l19.91-11.95q21,38.72,48.59,38.71a46.5,46.5,0,0,0,22.14-5.5,38.85,38.85,0,0,0,15.77-14.73,38.13,38.13,0,0,0,5.41-19.59q0-11.79-8-23.1-11-15.61-40.14-37.59-29.31-22.14-36.48-32Q14.82,74.22,14.81,55a54.34,54.34,0,0,1,7.33-27.88A52.25,52.25,0,0,1,42.77,7.25,59.47,59.47,0,0,1,71.68,0a61.59,61.59,0,0,1,31,8.21q14.41,8.2,30.51,30.18l-19.12,14.5q-13.22-17.53-22.54-23.1A38.79,38.79,0,0,0,71.2,24.22Q57,24.22,48,32.82A28.13,28.13,0,0,0,39,54a36.19,36.19,0,0,0,3.18,14.82Q45.41,76,53.84,84.43q4.62,4.45,30.27,23.41,30.42,22.47,41.73,40T137.15,183q0,25.49-19.35,44.28t-47.07,18.8A69,69,0,0,1,32,234.72Q14.65,223.33,0,196.57Z"/><path d="M177.76,5.89h23.42V147.35q0,25.17,1,31.38,1.74,13.86,8.12,23.18t19.59,15.61a61.51,61.51,0,0,0,26.61,6.29,52.6,52.6,0,0,0,22.3-4.94,49.64,49.64,0,0,0,17.84-13.7A55.86,55.86,0,0,0,307.11,184q2.38-8.91,2.39-36.63V5.89h23.41V147.35q0,31.38-6.13,50.73t-24.53,33.69q-18.39,14.34-44.52,14.34-28.35,0-48.58-13.54t-27.08-35.84q-4.31-13.71-4.31-49.38Z"/><path d="M372.05,240.21,405.59,5.89h3.81l95.26,192.27L599,5.89h3.75l33.72,234.32h-23L590.35,72.64,507.51,240.21h-6L417.68,71.37l-23,168.84Z"/><path d="M677.83,5.89H724q27.88,0,42.85,6.62a52.48,52.48,0,0,1,23.66,20.31,55.72,55.72,0,0,1,8.68,30.42,54.66,54.66,0,0,1-7.61,28.43Q784,104.5,769.25,112.46q18.27,6.23,28.11,14.58a58.21,58.21,0,0,1,15.32,20.23A60.51,60.51,0,0,1,818.16,173q0,28.2-20.63,47.71t-55.35,19.51H677.83Zm22.94,22.94v75h13.4q24.44,0,35.92-4.54A38.71,38.71,0,0,0,768.29,85,37.63,37.63,0,0,0,775,63.24Q775,47.16,763.74,38T727.9,28.83Zm0,98.6v89.85h29q25.68,0,37.66-5a42.86,42.86,0,0,0,19.22-15.69,41,41,0,0,0-3-50.34q-10.2-11.62-28.06-15.93-12-2.87-41.66-2.87Z"/><path d="M967,0q53.24,0,89.1,35.52T1091.93,123q0,51.45-35.78,87.29t-87.27,35.84q-52.12,0-88-35.68T845,124.09a125,125,0,0,1,16.33-62.6A120.69,120.69,0,0,1,967,0Zm1,22.78a96.56,96.56,0,0,0-49.3,13.55,97.61,97.61,0,0,0-36.38,36.51Q869.24,95.79,869.24,124q0,41.78,29,70.54T968,223.33a100.27,100.27,0,0,0,50.5-13.23,94.75,94.75,0,0,0,36.22-36.19q13-22.95,13-51,0-27.89-13-50.45a97.24,97.24,0,0,0-36.62-36.11A99.13,99.13,0,0,0,968,22.78Z"/><path d="M1108.44,5.89h27.39l56.1,91.18,56.43-91.18h27l-69.89,113.22L1280,240.21h-27.38l-60.85-98.88-61,98.88h-27.4l74.86-120.95Z"/></svg>