<svg id="Layer_1" data-name="Layer 1" xmlns="http://www.w3.org/2000/svg" viewBox="0 0 990.5 1280"><path d="M0,1241.66l15.41-9.24q16.28,30,37.59,29.95a36,36,0,0,0,17.14-4.25,30.07,30.07,0,0,0,12.2-11.4,29.56,29.56,0,0,0,4.19-15.16q0-9.13-6.16-17.88-8.5-12.08-31.07-29.09t-28.22-24.78q-9.61-12.81-9.62-27.73a42.08,42.08,0,0,1,5.67-21.57,40.43,40.43,0,0,1,16-15.35,46.1,46.1,0,0,1,22.37-5.61,47.66,47.66,0,0,1,24,6.35q11.16,6.36,23.61,23.36l-14.79,11.22Q78,1116.92,70.81,1112.6a30.07,30.07,0,0,0-15.71-4.31q-11,0-17.93,6.66a21.75,21.75,0,0,0-7,16.39,28,28,0,0,0,2.46,11.47q2.48,5.54,9,12.08,3.59,3.45,23.42,18.11,23.55,17.38,32.3,30.94t8.75,27.25q0,19.72-15,34.26T54.73,1280a53.45,53.45,0,0,1-29.95-8.81Q11.34,1262.37,0,1241.66Z"/><path d="M137.56,1094.11h18.12v109.47q0,19.47.74,24.28,1.35,10.73,6.29,17.93t15.16,12.08a47.44,47.44,0,0,0,20.58,4.87,40.62,40.62,0,0,0,17.26-3.82,38.3,38.3,0,0,0,13.81-10.6,43.13,43.13,0,0,0,8.13-16.39q1.84-6.92,1.85-28.35V1094.11h18.12v109.47q0,24.29-4.74,39.25t-19,26.08Q219.66,1280,199.44,1280q-21.94,0-37.6-10.48a50.46,50.46,0,0,1-21-27.73q-3.33-10.61-3.33-38.21Z"/><path d="M287.9,1275.44l26-181.33h2.95l73.71,148.79,73-148.79h2.91l26.09,181.33H474.75l-17.92-129.68-64.11,129.68h-4.63l-64.87-130.66L305.4,1275.44Z"/><path d="M524.52,1094.11h35.75q21.57,0,33.16,5.12a40.56,40.56,0,0,1,18.3,15.72,43.06,43.06,0,0,1,6.72,23.54,42.25,42.25,0,0,1-5.89,22,43.57,43.57,0,0,1-17.29,16.09q14.13,4.82,21.75,11.28a45.07,45.07,0,0,1,11.86,15.65,46.89,46.89,0,0,1,4.24,19.91q0,21.81-16,36.92t-42.84,15.1h-49.8Zm17.75,17.76v58.05h10.38q18.9,0,27.79-3.51a30,30,0,0,0,14.09-11.09,29.14,29.14,0,0,0,5.19-16.83q0-12.45-8.71-19.54t-27.74-7.08Zm0,76.3v69.52h22.48q19.88,0,29.14-3.88a33.15,33.15,0,0,0,14.88-12.15,31.67,31.67,0,0,0-2.29-39q-7.89-9-21.71-12.32-9.27-2.22-32.24-2.22Z"/><path d="M748.27,1089.55q41.19,0,69,27.49T845,1184.72q0,39.81-27.69,67.54T749.75,1280q-40.34,0-68.09-27.61t-27.75-66.81a96.64,96.64,0,0,1,12.64-48.45,93.4,93.4,0,0,1,81.72-47.58Zm.8,17.63a77.43,77.43,0,0,0-66.3,38.74,78.54,78.54,0,0,0-10.13,39.6q0,32.31,22.41,54.59t54,22.26a77.57,77.57,0,0,0,39.08-10.24,73.25,73.25,0,0,0,28-28,78.66,78.66,0,0,0,10.06-39.48,76.74,76.74,0,0,0-10.06-39,75.12,75.12,0,0,0-28.33-27.94A76.71,76.71,0,0,0,749.07,1107.18Z"/><path d="M857.74,1094.11h21.2l43.41,70.56L966,1094.11h20.91l-54.09,87.62,57.66,93.71H969.31l-47.08-76.52L875,1275.44H853.8l57.92-93.6Z"/><path d="M594.3,891.45a99.08,99.08,0,0,1-99,99H99.05a99.08,99.08,0,0,1-99-99V495.25a99,99,0,0,1,198.1,0V742.88a49.54,49.54,0,0,0,49.53,49.52H495.25A99.09,99.09,0,0,1,594.3,891.45Z"/><path d="M594.3,396.2V594.3a99.05,99.05,0,1,1-198.1,0V396.2a99,99,0,1,1,198.1,0Z"/><path d="M990.5,99.05v396.2a99,99,0,1,1-198.1,0V247.63a49.54,49.54,0,0,0-49.52-49.53H495.25a99,99,0,0,1,0-198.1h396.2A99.08,99.08,0,0,1,990.5,99.05Z"/></svg>